<svg viewBox="0 0 54.7 40" xmlns="http://www.w3.org/2000/svg" xmlns:xlink="http://www.w3.org/1999/xlink" overflow="hidden"><g id="Layer_2"><g id="Layer_1-2"><g><path d="M36.9 33.4 26.7 38.7 18.7 34.3C17.9544 34.0952 17.516 33.3248 17.7208 32.5792 17.8516 32.1029 18.2237 31.7308 18.7 31.6L29.4 25.8 37.4 30.3C38.3 30.7 38.3 32.5 36.9 33.4Z" fill="#FFFFFF"/><path d="M54.7 9.3 54.7 40 43.6 33.8C41.8901 32.7654 40.8612 30.8981 40.9 28.9L40.9 19.6C40.8545 18.7175 40.1022 18.039 39.2197 18.0845 39.0413 18.0937 38.8656 18.1327 38.7 18.2L26.7 24.5 13.3 31.6 6.2 35.6C3.6 36.9 0 35.2 0 32L0 8.5 11.1 14.2 11.1 14.2C12.466 15.0967 14.234 15.0967 15.6 14.2L15.6 14.2 27.6 8.5 40.9 1.3 40.9 1.3C41.7559 0.901724 42.7441 0.901724 43.6 1.3L53.8 7.6C54.3571 7.98788 54.6924 8.62117 54.7 9.3Z" fill="#FFFFFF"/><path d="M22.7 8.5 15.6 12.5C14.2968 12.901 12.9032 12.901 11.6 12.5L1.8 7.1 13.3 0 22.7 5.3C24 6.2 24 8 22.7 8.5Z" fill="#FFFFFF"/></g></g></g></svg>