<svg xmlns="http://www.w3.org/2000/svg" viewBox="0 0 54.7 40">
  <g id="Layer_2" data-name="Layer 2">
    <g id="Layer_1-2" data-name="Layer 1">
      <g>
        <path d="M36.9,33.4,26.7,38.7l-8-4.4a1.4,1.4,0,0,1,0-2.7l10.7-5.8,8,4.5C38.3,30.7,38.3,32.5,36.9,33.4Z" style="fill: #150300"/>
        <path d="M54.7,9.3V40L43.6,33.8a5.6,5.6,0,0,1-2.7-4.9V19.6a1.6,1.6,0,0,0-2.2-1.4l-12,6.3L13.3,31.6l-7.1,4C3.6,36.9,0,35.2,0,32V8.5l11.1,5.7h0a4.1,4.1,0,0,0,4.5,0h0l12-5.7L40.9,1.3h0a3.2,3.2,0,0,1,2.7,0L53.8,7.6A2.1,2.1,0,0,1,54.7,9.3Z" style="fill: #150300"/>
        <path d="M22.7,8.5l-7.1,4a6.8,6.8,0,0,1-4,0L1.8,7.1,13.3,0l9.4,5.3C24,6.2,24,8,22.7,8.5Z" style="fill: #150300"/>
      </g>
    </g>
  </g>
</svg>
