<svg xmlns="http://www.w3.org/2000/svg" viewBox="0 0 68.1 12.8">
  <g id="Layer_2" data-name="Layer 2">
    <g id="Layer_1-2" data-name="Layer 1">
      <g>
        <path d="M8.3,8.9,6,10.1l-1.8-1a.3.3,0,0,1,0-.6L6.6,7.2l1.8,1C8.6,8.3,8.6,8.7,8.3,8.9Z" style="fill: #dffbff"/>
        <path d="M12.3,3.5v6.9L9.8,9a1.3,1.3,0,0,1-.6-1.1V5.8a.3.3,0,0,0-.5-.3L6,6.9,3,8.5l-1.6.9A1,1,0,0,1,0,8.6V3.3L2.5,4.6h0a.9.9,0,0,0,1,0h0L6.2,3.3l3-1.6h.6l2.3,1.4A.5.5,0,0,1,12.3,3.5Z" style="fill: #dffbff"/>
        <path d="M5.1,3.3l-1.6.9H2.6L.4,3,3,1.4,5.1,2.6C5.4,2.8,5.4,3.2,5.1,3.3Z" style="fill: #dffbff"/>
      </g>
      <g>
        <path d="M27.2.1,25.3,7.7H23.5L24.7,3,22.4,5.9,21.6,3,20.4,7.7H18.6L20.5.1h2.2l.6,2.2L25.1,0h2.1Z" style="fill: #dffbff"/>
        <path d="M32.2,7.7H26.1L28,.1h6.1Zm-.4-5.8H29.4l-1,4h2.4Z" style="fill: #dffbff"/>
        <path d="M40.8.9,39.3,6.8l-1,.8H33L34.9,0h5.3A2.4,2.4,0,0,1,40.8.9Zm-2.1,1H36.3l-1,4h2.4Z" style="fill: #dffbff"/>
        <path d="M47.7.1,45.8,7.7H39.7L41.6.1h1.8L42,5.9h2.4L45.8.1Z" style="fill: #dffbff"/>
        <path d="M53.6,4l-.9,3.7H46.6L48.5.1h1.8L48.9,5.9h2.4l.5-1.8h1.8Z" style="fill: #dffbff"/>
        <path d="M56.9,1.9,56.6,3h3.1l-.4,1.8H56.2l-.3,1.1h3.7l-.5,1.8H53.6L55.5.1H61l-.5,1.8Z" style="fill: #dffbff"/>
        <path d="M66.1,7.7H60l.5-1.8h4.3l.3-1.1H60.8L62,.1h6.1l-.5,1.8H63.3L63,3h4.3Z" style="fill: #dffbff"/>
      </g>
      <g>
        <path d="M22.9,12.7V10.1h1.4l.3.2.2.3c0,.1.1.2.1.3a.4.4,0,0,1-.1.3l-.2.3-.3.2.6,1h-.5l-.6-.9h-.5v.9h-.4Zm.4-1.3h.9c.1,0,.1-.1.1-.2v-.2c0-.1,0-.2-.1-.2s-.1-.1-.2-.2h-.8Z" style="fill: #dffbff"/>
        <path d="M29,12.3v.4H27.2V10.1h1.7v.4H27.6v.7h1.2v.3H27.6v.8Z" style="fill: #dffbff"/>
        <path d="M31.4,12.7V10.1h1.4l.3.2.2.3c0,.1.1.2.1.3a.6.6,0,0,1-.1.4l-.3.3H31.9v.9Zm.4-1.3h.9c.1,0,.1-.1.1-.2v-.2c0-.1,0-.2-.1-.2l-.2-.2h-.9v1Z" style="fill: #dffbff"/>
        <path d="M36.7,12.7h-.5l-.4-.3-.3-.4a.9.9,0,0,1-.1-.5.9.9,0,0,1,.1-.5l.3-.4.4-.3h1l.4.3.3.4a.9.9,0,0,1,.1.5.9.9,0,0,1-.1.5c-.1.2-.1.3-.3.4l-.4.3Zm-.8-1.3a.8.8,0,0,0,.1.4l.2.3.3.2h.6l.3-.2.2-.3c0-.1.1-.2.1-.3a.8.8,0,0,0-.1-.4l-.2-.3-.3-.2h-.7l-.3.2-.2.3Z" style="fill: #dffbff"/>
        <path d="M41.8,10.7H40.7c-.1.1-.1.1-.1.3V11h1.1l.3.2c.1.1.1.2.1.4a.4.4,0,0,1-.1.3.2.2,0,0,1-.2.2H40.4l-.3-.2.2-.3h1.3v-.2c0-.1,0-.2-.1-.2h-1c-.2,0-.3-.1-.3-.2a.4.4,0,0,1-.1-.3c0-.2,0-.3.1-.4l.3-.3h1.3Z" style="fill: #dffbff"/>
        <path d="M44.5,12.7V10.1h.4v2.6Z" style="fill: #dffbff"/>
        <path d="M49.3,10.5h-.9v2.2H48V10.5h-.9v-.4h2.2Z" style="fill: #dffbff"/>
        <path d="M52.6,12.7h-.5l-.4-.3-.3-.4a.9.9,0,0,1-.1-.5.9.9,0,0,1,.1-.5l.3-.4.4-.3h1l.4.3.3.4a.9.9,0,0,1,.1.5.9.9,0,0,1-.1.5c-.1.2-.1.3-.3.4l-.4.3Zm-.8-1.3a.8.8,0,0,0,.1.4l.2.3.3.2H53l.3-.2.2-.3c0-.1.1-.2.1-.3a.8.8,0,0,0-.1-.4l-.2-.3-.3-.2h-.7l-.3.2-.2.3Z" style="fill: #dffbff"/>
        <path d="M56.2,12.7V10.1h1.4l.3.2.2.3c0,.1.1.2.1.3a.4.4,0,0,1-.1.3l-.2.3-.3.2.6,1h-.5l-.4-1h-.6v.9Zm.5-1.3h.9c.1,0,.1-.1.1-.2v-.2c0-.1,0-.2-.1-.2l-.2-.2h-.9v1Z" style="fill: #dffbff"/>
        <path d="M60.7,10.1l.7,1.3.7-1.3h.4l-1,1.7v.9h-.4v-.9l-1-1.7Z" style="fill: #dffbff"/>
      </g>
    </g>
  </g>
</svg>
