<svg viewBox="0 0 73.1 12.8" xmlns="http://www.w3.org/2000/svg" xmlns:xlink="http://www.w3.org/1999/xlink" overflow="hidden"><g id="Layer_2"><g id="Layer_1-2"><g><path d="M11.8 10.7 8.5 12.4 6 11C5.5 10.8 5.5 10.2 6 10.1L9.4 8.3 11.9 9.7C12.2 9.8 12.2 10.4 11.8 10.7Z"/><path d="M17.5 3 17.5 12.8 13.9 10.8C13.3832 10.4334 13.0832 9.83336 13.1 9.2L13.1 6.3C13.1235 6.02486 12.9195 5.78277 12.6444 5.75927 12.5608 5.75214 12.4767 5.76614 12.4 5.8L8.5 7.8 4.3 10.1 2 11.4C1.3018 11.7322 0.4665 11.4355 0.134316 10.7373 0.0542162 10.5689 0.00855112 10.3862 1.08817e-09 10.2L0 2.7 3.6 4.6 3.6 4.6C4.04501 4.80108 4.55499 4.80108 5 4.6L5 4.6 8.8 2.7 13.1 0.4 13.1 0.4C13.3572 0.299593 13.6428 0.299593 13.9 0.4L17.2 2.4C17.3956 2.53594 17.5086 2.76199 17.5 3Z"/><path d="M7.3 2.7 5 4 3.7 4 0.6 2.3 4.3 0 7.3 1.7C7.7 2 7.7 2.6 7.3 2.7Z"/></g><g><path d="M32.2 0.6 30.3 8.2 28.5 8.2 29.7 3.5 27.4 6.4 26.6 3.5 25.4 8.2 23.6 8.2 25.5 0.6 27.7 0.6 28.3 2.8 30.1 0.5 32.2 0.5Z"/><path d="M37.2 8.2 31.1 8.2 33 0.6 39.1 0.6ZM36.8 2.4 34.4 2.4 33.4 6.4 35.8 6.4Z"/><path d="M45.8 1.4 44.3 7.3 43.3 8.1 38 8.1 39.9 0.5 45.2 0.5C45.4659 0.750435 45.6711 1.05825 45.8 1.4ZM43.7 2.4 41.3 2.4 40.3 6.4 42.7 6.4Z"/><path d="M52.7 0.6 50.8 8.2 44.7 8.2 46.6 0.6 48.4 0.6 47 6.4 49.4 6.4 50.8 0.6Z"/><path d="M58.6 4.5 57.7 8.2 51.6 8.2 53.5 0.6 55.3 0.6 53.9 6.4 56.3 6.4 56.8 4.6 58.6 4.6Z"/><path d="M61.9 2.4 61.6 3.5 64.7 3.5 64.3 5.3 61.2 5.3 60.9 6.4 64.6 6.4 64.1 8.2 58.6 8.2 60.5 0.6 66 0.6 65.5 2.4Z"/><path d="M71.1 8.2 65 8.2 65.5 6.4 69.8 6.4 70.1 5.3 65.8 5.3 67 0.6 73.1 0.6 72.6 2.4 68.3 2.4 68 3.5 72.3 3.5Z"/></g><g><path d="M27.9 12.3 27.9 9.7 29.4 9.7 29.6 9.9 29.8 10.1 29.8 10.8 29.6 11 29.3 11.2 29.9 12.2 29.5 12.2 28.9 11.3 28.3 11.3 28.3 12.2ZM28.3 11 29.2 11 29.4 10.8 29.4 10.3 29.2 10.1 28.3 10.1Z"/><path d="M34 11.9 34 12.3 32.3 12.3 32.3 9.7 34 9.7 34 10.1 32.7 10.1 32.7 10.8 33.8 10.8 33.8 11.1 32.7 11.1 32.7 11.9Z"/><path d="M36.4 12.3 36.4 9.7 37.8 9.7 38 9.9 38.2 10.1C38.2 10.2 38.3 10.3 38.3 10.4 38.3 10.5 38.2 10.7 38.2 10.8L37.9 11.2 36.8 11.2 36.8 12.1ZM36.8 11 37.7 11 37.7 10.8C37.7 10.7 37.8 10.6 37.8 10.5L37.8 10.3C37.8 10.2 37.7 10.2 37.6 10.1L36.8 10.1Z"/><path d="M41.7 12.3 41.2 12.3 40.8 12 40.5 11.6C40.5 11.4 40.4 11.3 40.4 11.1 40.4 10.9 40.5 10.8 40.5 10.6L40.8 10.2 41.2 9.9 42.2 9.9 42.6 10.2C42.7033 10.3116 42.7727 10.4504 42.8 10.6 42.8808 10.7535 42.9156 10.9272 42.9 11.1 42.9156 11.2728 42.8808 11.4465 42.8 11.6 42.7 11.7 42.7 11.9 42.5 12L42.2 12.3ZM40.9 11 40.9 11.3C40.9 11.5 41 11.6 41.1 11.6L41.3 11.9 42 11.9 42.3 11.7 42.3 11.4C42.3731 11.318 42.4093 11.2095 42.4 11.1 42.4022 10.9602 42.3677 10.8223 42.3 10.7L42.3 10.4 42 10.2 41.3 10.2 41.1 10.5C41 10.5 40.9 10.6 40.9 10.8Z"/><path d="M46.8 10.3C46.7448 10.3 46.7 10.2552 46.7 10.2L45.7 10.2C45.6269 10.282 45.5907 10.3905 45.6 10.5 45.6 10.6 45.6 10.7 45.7 10.7L46.2 10.7 46.7 10.9 47 11.1C47 11.2 47.1 11.3 47.1 11.5 47.1093 11.6095 47.0731 11.718 47 11.8L46.8 12 46.5 12.2 45.8 12.2 45.4 12 45.1 11.8 45.3 11.5 46.5 11.5C46.6 11.5 46.6 11.4 46.6 11.3L46.6 11.1 45.9 11.1 45.5 10.9 45.3 10.7C45.2269 10.618 45.1907 10.5095 45.2 10.4 45.1844 10.2272 45.2192 10.0535 45.3 9.9L45.6 9.7 46.7 9.7 47 9.9Z"/><path d="M49.4 12.3 49.4 9.7 49.8 9.7 49.8 12.3Z"/><path d="M54.3 10.1 53.4 10.1 53.4 12.3 53 12.3 53 10.1 52.1 10.1 52.1 9.7 54.3 9.7Z"/><path d="M57.5 12.3 57 12.3 56.7 12C56.5 11.9 56.5 11.7 56.4 11.6 56.3192 11.4465 56.2844 11.2728 56.3 11.1 56.2844 10.9272 56.3192 10.7535 56.4 10.6L56.7 10.2 57.1 9.9 58.1 9.9 58.4 10.2 58.7 10.6C58.7 10.8 58.8 10.9 58.8 11.1 58.8 11.3 58.7 11.4 58.7 11.6L58.4 12 58 12.3ZM56.7 11C56.7 11.1 56.8 11.2 56.8 11.3 56.8 11.4 56.9 11.6 57 11.6L57.2 11.9 57.9 11.9 58.2 11.7 58.2 11.4C58.2 11.3 58.3 11.2 58.3 11.1 58.3 11 58.2 10.9 58.2 10.7L58 10.4 57.8 10.2 57.1 10.2 56.8 10.5C56.7269 10.582 56.6907 10.6905 56.7 10.8 56.8 10.8 56.7 10.9 56.7 11Z"/><path d="M61.2 12.3 61.2 9.7 62.6 9.7C62.7105 9.7 62.8 9.78954 62.8 9.9L63 10.1C63 10.2 63.1 10.3 63.1 10.4 63.1 10.5 63 10.7 63 10.8L62.8 11C62.8 11.1105 62.7105 11.2 62.6 11.2L63.2 12.2 62.7 12.2 62.2 11.3 61.6 11.3 61.6 12.2ZM61.6 11 62.5 11 62.5 10.8C62.5 10.7 62.6 10.6 62.6 10.5L62.6 10.3C62.6 10.2 62.5 10.2 62.4 10.1L61.6 10.1Z"/><path d="M65.6 9.7 66.3 11 67 9.7 67.4 9.7 66.5 11.4 66.5 12.3 66.1 12.3 66.1 11.4 65.1 9.7Z"/></g></g></g></svg>