<svg xmlns="http://www.w3.org/2000/svg" viewBox="0 0 73.1 12.8">
  <g id="Layer_2" data-name="Layer 2">
    <g id="Layer_1-2" data-name="Layer 1">
      <g>
        <path d="M11.8,10.7,8.5,12.4,6,11c-.5-.2-.5-.8,0-.9L9.4,8.3l2.5,1.4C12.2,9.8,12.2,10.4,11.8,10.7Z" style="fill: #f4fcff"/>
        <path d="M17.5,3v9.8l-3.6-2a1.9,1.9,0,0,1-.8-1.6V6.3a.5.5,0,0,0-.7-.5l-3.9,2L4.3,10.1,2,11.4a1.4,1.4,0,0,1-2-1.2V2.7L3.6,4.6h0A1.7,1.7,0,0,0,5,4.6H5L8.8,2.7,13.1.4h0a1.1,1.1,0,0,1,.8,0l3.3,2A.7.7,0,0,1,17.5,3Z" style="fill: #f4fcff"/>
        <path d="M7.3,2.7,5,4H3.7L.6,2.3,4.3,0l3,1.7C7.7,2,7.7,2.6,7.3,2.7Z" style="fill: #f4fcff"/>
      </g>
      <g>
        <path d="M32.2.6,30.3,8.2H28.5l1.2-4.7L27.4,6.4l-.8-2.9L25.4,8.2H23.6L25.5.6h2.2l.6,2.2L30.1.5h2.1Z" style="fill: #f4fcff"/>
        <path d="M37.2,8.2H31.1L33,.6h6.1Zm-.4-5.8H34.4l-1,4h2.4Z" style="fill: #f4fcff"/>
        <path d="M45.8,1.4,44.3,7.3l-1,.8H38L39.9.5h5.3A2.4,2.4,0,0,1,45.8,1.4Zm-2.1,1H41.3l-1,4h2.4Z" style="fill: #f4fcff"/>
        <path d="M52.7.6,50.8,8.2H44.7L46.6.6h1.8L47,6.4h2.4L50.8.6Z" style="fill: #f4fcff"/>
        <path d="M58.6,4.5l-.9,3.7H51.6L53.5.6h1.8L53.9,6.4h2.4l.5-1.8h1.8Z" style="fill: #f4fcff"/>
        <path d="M61.9,2.4l-.3,1.1h3.1l-.4,1.8H61.2l-.3,1.1h3.7l-.5,1.8H58.6L60.5.6H66l-.5,1.8Z" style="fill: #f4fcff"/>
        <path d="M71.1,8.2H65l.5-1.8h4.3l.3-1.1H65.8L67,.6h6.1l-.5,1.8H68.3L68,3.5h4.3Z" style="fill: #f4fcff"/>
      </g>
      <g>
        <path d="M27.9,12.3V9.7h1.5l.2.2.2.2v.7l-.2.2-.3.2.6,1h-.4l-.6-.9h-.6v.9Zm.4-1.3h.9l.2-.2v-.5l-.2-.2h-.9Z" style="fill: #f4fcff"/>
        <path d="M34,11.9v.4H32.3V9.7H34v.4H32.7v.7h1.1v.3H32.7v.8Z" style="fill: #f4fcff"/>
        <path d="M36.4,12.3V9.7h1.4l.2.2.2.2c0,.1.1.2.1.3s-.1.3-.1.4l-.3.4H36.8v.9Zm.4-1.3h.9v-.2c0-.1.1-.2.1-.3v-.2c0-.1-.1-.1-.2-.2h-.8Z" style="fill: #f4fcff"/>
        <path d="M41.7,12.3h-.5l-.4-.3-.3-.4c0-.2-.1-.3-.1-.5s.1-.3.1-.5l.3-.4.4-.3h1l.4.3a.8.8,0,0,1,.2.4.9.9,0,0,1,.1.5.9.9,0,0,1-.1.5c-.1.1-.1.3-.3.4l-.3.3ZM40.9,11v.3c0,.2.1.3.2.3l.2.3H42l.3-.2v-.3a.4.4,0,0,0,.1-.3.8.8,0,0,0-.1-.4v-.3l-.3-.2h-.7l-.2.3c-.1,0-.2.1-.2.3Z" style="fill: #f4fcff"/>
        <path d="M46.8,10.3a.1.1,0,0,1-.1-.1h-1a.4.4,0,0,0-.1.3c0,.1,0,.2.1.2h.5l.5.2.3.2c0,.1.1.2.1.4a.4.4,0,0,1-.1.3l-.2.2-.3.2h-.7l-.4-.2-.3-.2.2-.3h1.2c.1,0,.1-.1.1-.2v-.2h-.7l-.4-.2-.2-.2a.4.4,0,0,1-.1-.3.9.9,0,0,1,.1-.5l.3-.2h1.1l.3.2Z" style="fill: #f4fcff"/>
        <path d="M49.4,12.3V9.7h.4v2.6Z" style="fill: #f4fcff"/>
        <path d="M54.3,10.1h-.9v2.2H53V10.1h-.9V9.7h2.2Z" style="fill: #f4fcff"/>
        <path d="M57.5,12.3H57l-.3-.3c-.2-.1-.2-.3-.3-.4a.9.9,0,0,1-.1-.5.9.9,0,0,1,.1-.5l.3-.4.4-.3h1l.3.3.3.4c0,.2.1.3.1.5s-.1.3-.1.5l-.3.4-.4.3ZM56.7,11c0,.1.1.2.1.3s.1.3.2.3l.2.3h.7l.3-.2v-.3c0-.1.1-.2.1-.3s-.1-.2-.1-.4l-.2-.3-.2-.2h-.7l-.3.3a.4.4,0,0,0-.1.3C56.8,10.8,56.7,10.9,56.7,11Z" style="fill: #f4fcff"/>
        <path d="M61.2,12.3V9.7h1.4a.2.2,0,0,1,.2.2l.2.2c0,.1.1.2.1.3s-.1.3-.1.4l-.2.2a.2.2,0,0,1-.2.2l.6,1h-.5l-.5-.9h-.6v.9Zm.4-1.3h.9v-.2c0-.1.1-.2.1-.3v-.2c0-.1-.1-.1-.2-.2h-.8Z" style="fill: #f4fcff"/>
        <path d="M65.6,9.7l.7,1.3L67,9.7h.4l-.9,1.7v.9h-.4v-.9l-1-1.7Z" style="fill: #f4fcff"/>
      </g>
    </g>
  </g>
</svg>
