<?xml version="1.0" encoding="utf-8"?>
<!-- Generator: Adobe Illustrator 24.3.0, SVG Export Plug-In . SVG Version: 6.00 Build 0)  -->
<svg version="1.1" id="Layer_1" xmlns="http://www.w3.org/2000/svg" xmlns:xlink="http://www.w3.org/1999/xlink" x="0px" y="0px"
	 viewBox="0 0 84 14" style="enable-background:new 0 0 84 14;" xml:space="preserve">
<style type="text/css">
	.st0{display:none;}
	.st1{fill:#6206A8;}
	.st2{fill:#3573FF;}
	.st3{display:inline;fill:#3573FF;}
</style>
<desc>Created with Sketch.</desc>
<g id="Symbols">
	<g id="Header" transform="translate(-27.000000, -16.000000)" class="st0">
		<g id="logo" transform="translate(27.000000, 16.000000)">
			<path id="FOIAPP" class="st1" d="M21.1,13V7.6h2.8c0.5,0,0.9,0,1.2,0l0,0l0-2.3c-0.1,0-0.5,0.1-1.2,0.1h-2.7V2.9h3.1
				c0.6,0,1,0,1.4,0.1l0,0l0,0c0,0,0-0.1,0-0.2c0-0.9,0-1.6,0.1-2.2c-1.4,0-2.8,0.1-4.4,0.1c-0.5,0-1,0-1.5,0l0,0l-0.7,0
				c-0.2,0-0.4,0-0.6,0l0,0V13H21.1z M33.3,13.2c0.7,0,1.3-0.1,1.9-0.2c1.1-0.3,2-0.8,2.8-1.6c1.3-1.3,1.9-2.8,1.9-4.7
				c0-2-0.6-3.5-1.9-4.7c-1.2-1.1-2.6-1.6-4.3-1.6c-1,0-1.9,0.2-2.7,0.5s-1.5,0.8-2,1.5s-1,1.3-1.3,2.1s-0.5,1.7-0.5,2.6
				s0.2,1.7,0.5,2.5s0.8,1.4,1.3,1.9s1.2,1,2,1.3S32.6,13.2,33.3,13.2z M33.7,10.9c-1.1,0-2.1-0.4-2.8-1.1c-0.3-0.3-0.6-0.8-0.8-1.2
				s-0.3-1-0.3-1.6c0-1.2,0.3-2.2,1-3c0.7-0.9,1.6-1.3,2.8-1.3c1.2,0,2.1,0.4,2.8,1.3c0.6,0.8,1,1.8,1,2.9c0,1.2-0.3,2.2-1,3
				C35.7,10.6,34.8,10.9,33.7,10.9z M45.2,13l0-12.4c-0.2,0-0.5,0.1-0.8,0.1l0,0h-0.7c-0.1,0-0.5,0-1.1,0l0,0V13H45.2z M55.9,13.1
				l0.9-2.7h4.2l0.9,2.7h1.9c0.3,0,0.5,0,0.5,0c0.2,0,0.3,0,0.4,0l0,0L60.5,1.7c-0.2-0.5-0.3-0.8-0.3-0.9c0,0,0-0.1,0-0.1l0,0l0,0
				c-0.5,0-1,0-1.3,0c-0.5,0-0.9,0-1.3,0l0,0l0,0c0,0,0,0.1,0,0.2s-0.1,0.4-0.3,0.9l0,0l-4,11.3H54C54.7,13,55.3,13,55.9,13.1
				L55.9,13.1z M60.2,8.1h-2.8l1.4-4.3L60.2,8.1z M68.3,13V9.6c0.2,0,0.4,0,0.5,0c1.4,0,2.6-0.4,3.5-1.2c1-0.8,1.4-1.9,1.4-3.3
				c0-1.6-0.4-2.8-1.3-3.5s-2.2-1.2-3.8-1.2c-0.9,0-1.8,0.1-2.6,0.2l0,0V13H68.3z M69,7.6c-0.3,0-0.5,0-0.7,0l0,0V2.7
				c0.2,0,0.4,0,0.6,0c1.7,0,2.5,0.8,2.5,2.5c0,0.7-0.2,1.3-0.7,1.8c-0.2,0.2-0.5,0.4-0.8,0.5S69.3,7.6,69,7.6z M77.8,13V9.6
				c0.2,0,0.4,0,0.5,0c1.4,0,2.6-0.4,3.5-1.2c1-0.8,1.4-1.9,1.4-3.3c0-1.6-0.4-2.8-1.3-3.5s-2.2-1.2-3.8-1.2c-0.9,0-1.8,0.1-2.6,0.2
				l0,0V13H77.8z M78.5,7.6c-0.3,0-0.5,0-0.7,0l0,0V2.7c0.2,0,0.4,0,0.6,0c1.7,0,2.5,0.8,2.5,2.5c0,0.7-0.2,1.3-0.7,1.8
				c-0.2,0.2-0.5,0.4-0.8,0.5S78.8,7.6,78.5,7.6z"/>
			<g id="texture-24px">
				<path id="Shape" class="st1" d="M6.4,0.1L0.1,6.4v2l8.3-8.3H6.4z M0.1,1.5V3L3,0.1H1.5C0.8,0.1,0.1,0.8,0.1,1.5z M11.8,0.2
					L0.2,11.8c0.1,0.2,0.2,0.5,0.4,0.6c0.2,0.2,0.4,0.3,0.6,0.4L12.8,1.2C12.7,0.7,12.3,0.3,11.8,0.2z M12.9,4.6l-8.3,8.3h2l6.3-6.3
					V4.6z M12.5,12.5c0.3-0.3,0.4-0.6,0.4-1V10L10,12.9h1.4C11.8,12.9,12.2,12.7,12.5,12.5z"/>
			</g>
		</g>
	</g>
</g>
<g>
	<path class="st2" d="M12.1,9.8L9.8,11l-1.8-1c-0.3-0.1-0.3-0.5,0-0.6l2.4-1.3l1.8,1C12.4,9.2,12.4,9.6,12.1,9.8z"/>
	<path class="st2" d="M16.1,4.4v6.9l-2.5-1.4C13.2,9.7,13,9.2,13,8.8V6.7c0-0.2-0.2-0.4-0.5-0.3L9.8,7.8l-3,1.6l-1.6,0.9
		c-0.6,0.3-1.4-0.1-1.4-0.8V4.2l2.5,1.3h0l0,0c0.3,0.2,0.7,0.2,1,0l0,0L10,4.2l3-1.6l0,0c0.2-0.1,0.4-0.1,0.6,0L15.9,4
		C16,4.1,16.1,4.2,16.1,4.4z"/>
	<path class="st2" d="M8.9,4.2L7.3,5.1C7,5.2,6.7,5.2,6.4,5.1L4.2,3.9l2.6-1.6l2.1,1.2C9.2,3.7,9.2,4.1,8.9,4.2z"/>
</g>
<g class="st0">
	<path class="st3" d="M35.9,0.9L34,8.5h-1.8l1.2-4.7l-2.3,2.9l-0.8-2.9l-1.2,4.7h-1.8l1.9-7.6h2.2L32,3.1l1.8-2.3H35.9z"/>
	<path class="st3" d="M40.9,8.5h-6.1l1.9-7.6h6.1L40.9,8.5z M40.5,2.7h-2.4l-1,4h2.4L40.5,2.7z"/>
	<path class="st3" d="M49.5,1.7L48,7.6c-0.3,0.3-0.7,0.6-1,0.8h-5.3l1.9-7.6h5.3C49.2,1.1,49.4,1.4,49.5,1.7z M47.4,2.7H45l-1,4h2.4
		L47.4,2.7z"/>
	<path class="st3" d="M56.4,0.9l-1.9,7.6h-6.1l1.9-7.6h1.8l-1.4,5.8h2.4l1.4-5.8H56.4z"/>
	<path class="st3" d="M62.3,4.8l-0.9,3.7h-6.1l1.9-7.6h1.8l-1.4,5.8h2.4l0.5-1.8H62.3z"/>
	<path class="st3" d="M65.6,2.7l-0.3,1.1h3.1L68,5.6h-3.1l-0.3,1.1h3.7l-0.5,1.8h-5.5l1.9-7.6h5.5l-0.5,1.8H65.6z"/>
	<path class="st3" d="M74.8,8.5h-6.1l0.5-1.8h4.3l0.3-1.1h-4.3l1.2-4.7h6.1l-0.5,1.8h-4.3l-0.3,1.1h4.3L74.8,8.5z"/>
</g>
<g class="st0">
	<path class="st3" d="M31.6,13.5v-2.6h1.1c0.1,0,0.2,0,0.3,0.1c0.1,0,0.2,0.1,0.3,0.2c0.1,0.1,0.1,0.2,0.2,0.3
		c0,0.1,0.1,0.2,0.1,0.3c0,0.1,0,0.2-0.1,0.3c0,0.1-0.1,0.2-0.2,0.3c-0.1,0.1-0.2,0.1-0.3,0.2l0.6,1h-0.5l-0.6-0.9H32v0.9H31.6z
		 M32,12.2h0.7c0.1,0,0.1,0,0.2-0.1c0.1,0,0.1-0.1,0.1-0.2c0-0.1,0.1-0.2,0.1-0.2c0-0.1,0-0.2-0.1-0.2s-0.1-0.1-0.2-0.2
		c-0.1,0-0.1-0.1-0.2-0.1H32V12.2z"/>
	<path class="st3" d="M37.7,13.1v0.4h-1.8v-2.6h1.7v0.4h-1.3V12h1.2v0.3h-1.2v0.8H37.7z"/>
	<path class="st3" d="M40.1,13.5v-2.6h1.1c0.1,0,0.2,0,0.3,0.1c0.1,0,0.2,0.1,0.3,0.2c0.1,0.1,0.1,0.2,0.2,0.3
		c0,0.1,0.1,0.2,0.1,0.3c0,0.1,0,0.3-0.1,0.4c-0.1,0.1-0.2,0.2-0.3,0.3c-0.1,0.1-0.3,0.1-0.4,0.1h-0.7v0.9H40.1z M40.5,12.2h0.7
		c0.1,0,0.1,0,0.2-0.1c0.1,0,0.1-0.1,0.1-0.2c0-0.1,0.1-0.2,0.1-0.2c0-0.1,0-0.2-0.1-0.2c0-0.1-0.1-0.1-0.2-0.2s-0.1-0.1-0.2-0.1
		h-0.7V12.2z"/>
	<path class="st3" d="M45.4,13.5c-0.2,0-0.3,0-0.5-0.1c-0.2-0.1-0.3-0.2-0.4-0.3c-0.1-0.1-0.2-0.3-0.3-0.4c-0.1-0.2-0.1-0.3-0.1-0.5
		c0-0.2,0-0.3,0.1-0.5c0.1-0.2,0.2-0.3,0.3-0.4c0.1-0.1,0.2-0.2,0.4-0.3c0.1-0.1,0.3-0.1,0.5-0.1c0.2,0,0.4,0,0.5,0.1
		c0.1,0.1,0.3,0.2,0.4,0.3c0.1,0.1,0.2,0.3,0.3,0.4c0.1,0.2,0.1,0.3,0.1,0.5c0,0.2,0,0.3-0.1,0.5c-0.1,0.2-0.1,0.3-0.3,0.4
		c-0.1,0.1-0.2,0.2-0.4,0.3C45.7,13.5,45.6,13.5,45.4,13.5z M44.6,12.2c0,0.1,0,0.2,0.1,0.4c0,0.1,0.1,0.2,0.2,0.3
		c0.1,0.1,0.2,0.2,0.3,0.2c0.1,0.1,0.2,0.1,0.3,0.1c0.1,0,0.2,0,0.3-0.1c0.1-0.1,0.2-0.1,0.3-0.2c0.1-0.1,0.1-0.2,0.2-0.3
		c0-0.1,0.1-0.2,0.1-0.3c0-0.1,0-0.2-0.1-0.4c0-0.1-0.1-0.2-0.2-0.3c-0.1-0.1-0.2-0.2-0.3-0.2c-0.1-0.1-0.2-0.1-0.3-0.1
		c-0.1,0-0.3,0-0.4,0.1c-0.1,0.1-0.2,0.1-0.3,0.2c-0.1,0.1-0.1,0.2-0.2,0.3C44.6,12,44.6,12.1,44.6,12.2z"/>
	<path class="st3" d="M50.5,11.5c0,0-0.1-0.1-0.1-0.1c0,0-0.1-0.1-0.2-0.1c-0.1,0-0.1,0-0.2-0.1c-0.1,0-0.1,0-0.2,0
		c-0.2,0-0.3,0-0.4,0.1c-0.1,0.1-0.1,0.1-0.1,0.3c0,0.1,0,0.1,0.1,0.2c0,0,0.1,0.1,0.2,0.1c0.1,0,0.2,0.1,0.4,0.1
		c0.2,0,0.3,0.1,0.5,0.1c0.1,0.1,0.2,0.1,0.3,0.2c0.1,0.1,0.1,0.2,0.1,0.4c0,0.1,0,0.2-0.1,0.3c0,0.1-0.1,0.2-0.2,0.2
		c-0.1,0.1-0.2,0.1-0.3,0.1c-0.1,0-0.2,0-0.4,0c-0.1,0-0.3,0-0.4,0c-0.1,0-0.2-0.1-0.4-0.1c-0.1-0.1-0.2-0.1-0.3-0.2l0.2-0.3
		c0,0,0.1,0.1,0.1,0.1c0.1,0,0.1,0.1,0.2,0.1c0.1,0,0.2,0.1,0.3,0.1c0.1,0,0.2,0,0.3,0c0.2,0,0.3,0,0.4-0.1c0.1-0.1,0.1-0.1,0.1-0.2
		c0-0.1,0-0.2-0.1-0.2c-0.1-0.1-0.1-0.1-0.2-0.1c-0.1,0-0.2-0.1-0.4-0.1c-0.2,0-0.3-0.1-0.4-0.1C49.1,12.2,49,12.1,49,12
		c-0.1-0.1-0.1-0.2-0.1-0.3c0-0.2,0-0.3,0.1-0.4c0.1-0.1,0.2-0.2,0.3-0.3c0.1-0.1,0.3-0.1,0.5-0.1c0.1,0,0.2,0,0.3,0
		c0.1,0,0.2,0.1,0.3,0.1c0.1,0,0.2,0.1,0.2,0.1L50.5,11.5z"/>
	<path class="st3" d="M53.2,13.5v-2.6h0.4v2.6H53.2z"/>
	<path class="st3" d="M58,11.3h-0.9v2.2h-0.4v-2.2h-0.9v-0.4H58V11.3z"/>
	<path class="st3" d="M61.3,13.5c-0.2,0-0.3,0-0.5-0.1s-0.3-0.2-0.4-0.3c-0.1-0.1-0.2-0.3-0.3-0.4c-0.1-0.2-0.1-0.3-0.1-0.5
		c0-0.2,0-0.3,0.1-0.5c0.1-0.2,0.2-0.3,0.3-0.4c0.1-0.1,0.2-0.2,0.4-0.3c0.1-0.1,0.3-0.1,0.5-0.1c0.2,0,0.4,0,0.5,0.1
		c0.1,0.1,0.3,0.2,0.4,0.3c0.1,0.1,0.2,0.3,0.3,0.4c0.1,0.2,0.1,0.3,0.1,0.5c0,0.2,0,0.3-0.1,0.5c-0.1,0.2-0.1,0.3-0.3,0.4
		c-0.1,0.1-0.2,0.2-0.4,0.3C61.7,13.5,61.5,13.5,61.3,13.5z M60.5,12.2c0,0.1,0,0.2,0.1,0.4c0,0.1,0.1,0.2,0.2,0.3
		c0.1,0.1,0.2,0.2,0.3,0.2c0.1,0.1,0.2,0.1,0.3,0.1c0.1,0,0.2,0,0.3-0.1c0.1-0.1,0.2-0.1,0.3-0.2c0.1-0.1,0.1-0.2,0.2-0.3
		c0-0.1,0.1-0.2,0.1-0.3c0-0.1,0-0.2-0.1-0.4c0-0.1-0.1-0.2-0.2-0.3c-0.1-0.1-0.2-0.2-0.3-0.2c-0.1-0.1-0.2-0.1-0.3-0.1
		c-0.1,0-0.3,0-0.4,0.1s-0.2,0.1-0.3,0.2c-0.1,0.1-0.1,0.2-0.2,0.3C60.5,12,60.5,12.1,60.5,12.2z"/>
	<path class="st3" d="M64.9,13.5v-2.6h1.1c0.1,0,0.2,0,0.3,0.1c0.1,0,0.2,0.1,0.3,0.2c0.1,0.1,0.1,0.2,0.2,0.3
		c0,0.1,0.1,0.2,0.1,0.3c0,0.1,0,0.2-0.1,0.3c0,0.1-0.1,0.2-0.2,0.3c-0.1,0.1-0.2,0.1-0.3,0.2l0.6,1h-0.5L66,12.6h-0.6v0.9H64.9z
		 M65.4,12.2h0.7c0.1,0,0.1,0,0.2-0.1c0.1,0,0.1-0.1,0.1-0.2c0-0.1,0.1-0.2,0.1-0.2c0-0.1,0-0.2-0.1-0.2s-0.1-0.1-0.2-0.2
		c-0.1,0-0.1-0.1-0.2-0.1h-0.7V12.2z"/>
	<path class="st3" d="M69.4,10.9l0.7,1.3l0.7-1.3h0.4l-1,1.7v0.9h-0.4v-0.9l-1-1.7H69.4z"/>
</g>
</svg>
