<svg id="Layer_1" data-name="Layer 1" xmlns="http://www.w3.org/2000/svg" viewBox="0 0 84 14">
  <defs>
    <style>
      .cls-1 {
        fill: #3573ff;
      }
    </style>
  </defs>
  <g>
    <path class="cls-1" d="M12.1,9.8,9.8,11,7.9,10a.4.4,0,0,1,0-.6l2.4-1.3,1.8,1C12.4,9.2,12.4,9.6,12.1,9.8Z"/>
    <path class="cls-1" d="M16.1,4.4v6.8L13.6,9.9A1.3,1.3,0,0,1,13,8.8V6.7a.3.3,0,0,0-.5-.3L9.8,7.8l-3,1.6-1.6.8a.9.9,0,0,1-1.4-.8V4.2L6.3,5.6h0a1.7,1.7,0,0,0,1,0h0L10,4.2l3-1.6h0a.5.5,0,0,1,.5,0L15.9,4A.5.5,0,0,1,16.1,4.4Z"/>
    <path class="cls-1" d="M8.9,4.2l-1.6.9a1.4,1.4,0,0,1-.9,0L4.2,3.9,6.9,2.3l2,1.3A.3.3,0,0,1,8.9,4.2Z"/>
  </g>
</svg>
