<svg xmlns="http://www.w3.org/2000/svg" viewBox="0 0 616.98 562.35"><defs><style>.cls-1{stroke:#000;stroke-miterlimit:10;}.cls-2{font-size:128.65px;font-family:WhiteNT-Bold, WhiteNT;font-weight:700;}.cls-3{font-size:100.06px;font-family:MyriadPro-Regular, Myriad Pro;font-weight:400;}</style></defs><g id="Layer_2" data-name="Layer 2"><path class="cls-1" d="M990.65,593.53l-95.58,50.35-75.45-40.64a14.77,14.77,0,0,1,.12-26.06l97.72-51.47,73.38,39.9A15.83,15.83,0,0,1,990.65,593.53Z" transform="translate(-604.13 -289.59)"/><path class="cls-1" d="M1153.7,373.69V654.17l-102.28-55.61a51,51,0,0,1-26.63-44.8V467.41a12.6,12.6,0,0,0-18.47-11.15l-110,58L774,578.65l-66.81,35.19C681.7,627.25,651.1,608.79,651.1,580V367.32l102.63,55h0a42.59,42.59,0,0,0,40,.15l.51-.27,108.13-57,122.41-64.48h0a24.44,24.44,0,0,1,23.8.57L1144.7,358A18.25,18.25,0,0,1,1153.7,373.69Z" transform="translate(-604.13 -289.59)"/><path class="cls-1" d="M858.88,366.93l-66.94,35.26a37.35,37.35,0,0,1-35.13-.16l-88.67-47.77L775,290.17,859.52,340A15.43,15.43,0,0,1,858.88,366.93Z" transform="translate(-604.13 -289.59)"/><text class="cls-2" transform="translate(25.73 503.01)">MODULES<tspan class="cls-3" x="570.04" y="0"> </tspan></text><path d="M654.78,851.72V821.27H668a8.32,8.32,0,0,1,3.77.86,9.79,9.79,0,0,1,3,2.27,10.79,10.79,0,0,1,2,3.2,9.66,9.66,0,0,1,.7,3.58,10.26,10.26,0,0,1-.73,3.88,8.93,8.93,0,0,1-2.08,3.15,8,8,0,0,1-3.15,1.93l7.16,11.58h-5.4l-6.6-10.59h-7v10.59Zm4.84-14.84H668a3.73,3.73,0,0,0,2.35-.79A5.47,5.47,0,0,0,672,834a6.62,6.62,0,0,0,.6-2.83,5.84,5.84,0,0,0-.7-2.87,5.92,5.92,0,0,0-1.78-2,4,4,0,0,0-2.36-.75h-8.11Z" transform="translate(-604.13 -289.59)"/><path d="M727.16,847.48v4.24H706.28V821.27h20.5v4.25H711.13v8.7h13.59v3.95H711.13v9.31Z" transform="translate(-604.13 -289.59)"/><path d="M755.29,851.72V821.27h12.78a8.37,8.37,0,0,1,3.78.86,10.19,10.19,0,0,1,5,5.47,9.85,9.85,0,0,1,.69,3.58,10.53,10.53,0,0,1-1.14,4.8,9.8,9.8,0,0,1-3.19,3.71,8.26,8.26,0,0,1-4.85,1.44h-8.19v10.59Zm4.85-14.84H768a3.91,3.91,0,0,0,2.36-.75,5,5,0,0,0,1.63-2.06,6.94,6.94,0,0,0,.6-2.93,6,6,0,0,0-.69-2.94,5.24,5.24,0,0,0-1.78-2,4.14,4.14,0,0,0-2.33-.71h-7.68Z" transform="translate(-604.13 -289.59)"/><path d="M817.77,851.94a13.26,13.26,0,0,1-5.87-1.29,14.5,14.5,0,0,1-4.61-3.5,16.16,16.16,0,0,1-4-10.65,15.44,15.44,0,0,1,1.11-5.81,16.27,16.27,0,0,1,3.11-4.94,15.3,15.3,0,0,1,4.63-3.43,13.32,13.32,0,0,1,5.81-1.26,13,13,0,0,1,5.94,1.33,14.82,14.82,0,0,1,4.57,3.56,16.19,16.19,0,0,1,3,5,16.08,16.08,0,0,1,0,11.43,15.55,15.55,0,0,1-3.07,4.93,14.75,14.75,0,0,1-4.63,3.41A13.56,13.56,0,0,1,817.77,851.94Zm-9.6-15.44a13.21,13.21,0,0,0,.66,4.18,11.56,11.56,0,0,0,1.93,3.56,9.31,9.31,0,0,0,3,2.46,8.84,8.84,0,0,0,4.05.9,8.75,8.75,0,0,0,4.12-.94,9.24,9.24,0,0,0,3-2.55,11.82,11.82,0,0,0,1.89-3.58,12.91,12.91,0,0,0,.64-4,12.73,12.73,0,0,0-.68-4.16,11.38,11.38,0,0,0-2-3.54,9.48,9.48,0,0,0-3.06-2.47,9.35,9.35,0,0,0-8.11,0,9.44,9.44,0,0,0-3,2.53,11.37,11.37,0,0,0-1.89,3.56A12.82,12.82,0,0,0,808.17,836.5Z" transform="translate(-604.13 -289.59)"/><path d="M878.54,828.44a5.16,5.16,0,0,0-1.22-1,12,12,0,0,0-1.93-1,16.49,16.49,0,0,0-2.4-.77,11.49,11.49,0,0,0-2.68-.32,7.34,7.34,0,0,0-4.46,1.11,3.62,3.62,0,0,0-1.46,3.07,3.18,3.18,0,0,0,.81,2.3,5.82,5.82,0,0,0,2.51,1.39c1.13.36,2.52.73,4.18,1.13a29.31,29.31,0,0,1,5.38,1.75,8.67,8.67,0,0,1,3.48,2.69,7.37,7.37,0,0,1,1.22,4.44,8.26,8.26,0,0,1-.88,3.93,7.34,7.34,0,0,1-2.42,2.71,11.38,11.38,0,0,1-3.56,1.55,17.6,17.6,0,0,1-4.33.52,21,21,0,0,1-4.53-.5A21.69,21.69,0,0,1,862,850a20.34,20.34,0,0,1-3.8-2.25l2.23-4.12a7.52,7.52,0,0,0,1.59,1.22,18.7,18.7,0,0,0,2.46,1.27,19.48,19.48,0,0,0,3,1,13.56,13.56,0,0,0,3.36.41,8,8,0,0,0,4.4-1,3.26,3.26,0,0,0,1.52-2.91,3.07,3.07,0,0,0-1-2.41,8.27,8.27,0,0,0-2.87-1.56c-1.24-.43-2.74-.85-4.48-1.28a27.11,27.11,0,0,1-5-1.75,7.37,7.37,0,0,1-3-2.48,6.93,6.93,0,0,1-1-3.89,8.33,8.33,0,0,1,5.41-8.17,14.5,14.5,0,0,1,5.62-1.05,16.64,16.64,0,0,1,3.92.45,17.76,17.76,0,0,1,3.47,1.22,15.28,15.28,0,0,1,2.85,1.76Z" transform="translate(-604.13 -289.59)"/><path d="M909.89,851.72V821.27h4.84v30.45Z" transform="translate(-604.13 -289.59)"/><path d="M967.05,825.52H956.93v26.2h-4.85v-26.2H941.92v-4.25h25.13Z" transform="translate(-604.13 -289.59)"/><path d="M1006.07,851.94a13.26,13.26,0,0,1-5.87-1.29,14.5,14.5,0,0,1-4.61-3.5,16.16,16.16,0,0,1-4.05-10.65,15.44,15.44,0,0,1,1.11-5.81,16.08,16.08,0,0,1,3.11-4.94,15.3,15.3,0,0,1,4.63-3.43,13.32,13.32,0,0,1,5.81-1.26,13,13,0,0,1,5.94,1.33,14.82,14.82,0,0,1,4.57,3.56,16.24,16.24,0,0,1,4,10.63,15.72,15.72,0,0,1-1.08,5.77,15.35,15.35,0,0,1-3.06,4.93,14.75,14.75,0,0,1-4.63,3.41A13.56,13.56,0,0,1,1006.07,851.94Zm-9.6-15.44a13.21,13.21,0,0,0,.66,4.18,11.56,11.56,0,0,0,1.93,3.56,9.31,9.31,0,0,0,3.05,2.46,9.53,9.53,0,0,0,8.17,0,9.24,9.24,0,0,0,3-2.55,11.82,11.82,0,0,0,1.89-3.58,12.91,12.91,0,0,0,.64-4,12.48,12.48,0,0,0-.69-4.16,11.16,11.16,0,0,0-2-3.54,9.59,9.59,0,0,0-3.06-2.47,9.35,9.35,0,0,0-8.11,0,9.33,9.33,0,0,0-3,2.53,11.37,11.37,0,0,0-1.89,3.56A12.82,12.82,0,0,0,996.47,836.5Z" transform="translate(-604.13 -289.59)"/><path d="M1048.87,851.72V821.27h13.25a8.32,8.32,0,0,1,3.77.86,10,10,0,0,1,3,2.27,10.76,10.76,0,0,1,2,3.2,9.66,9.66,0,0,1,.7,3.58,10.45,10.45,0,0,1-.72,3.88,9.07,9.07,0,0,1-2.08,3.15,8.06,8.06,0,0,1-3.16,1.93l7.17,11.58h-5.41l-6.6-10.59h-7v10.59Zm4.85-14.84h8.36a3.77,3.77,0,0,0,2.36-.79,5.57,5.57,0,0,0,1.63-2.08,6.62,6.62,0,0,0,.6-2.83,5.84,5.84,0,0,0-.71-2.87,5.92,5.92,0,0,0-1.78-2,4,4,0,0,0-2.36-.75h-8.1Z" transform="translate(-604.13 -289.59)"/><path d="M1101.19,821.27l8.4,15.14,8.49-15.14h5.28L1112,840.87v10.85h-4.8V840.79l-11.28-19.52Z" transform="translate(-604.13 -289.59)"/></g></svg>